<svg width="25" height="24" viewBox="0 0 25 24" fill="none" xmlns="http://www.w3.org/2000/svg">
<g id="Card" clip-path="url(#clip0_1_328)">
<path id="Vector" d="M3.33337 3H21.3334C21.5986 3 21.8529 3.10536 22.0405 3.29289C22.228 3.48043 22.3334 3.73478 22.3334 4V20C22.3334 20.2652 22.228 20.5196 22.0405 20.7071C21.8529 20.8946 21.5986 21 21.3334 21H3.33337C3.06816 21 2.8138 20.8946 2.62627 20.7071C2.43873 20.5196 2.33337 20.2652 2.33337 20V4C2.33337 3.73478 2.43873 3.48043 2.62627 3.29289C2.8138 3.10536 3.06816 3 3.33337 3ZM20.3334 11H4.33337V19H20.3334V11ZM20.3334 9V5H4.33337V9H20.3334ZM14.3334 15H18.3334V17H14.3334V15Z" fill="#0C1230"/>
</g>
<defs>
<clipPath id="clip0_1_328">
<rect width="24" height="24" fill="white" transform="translate(0.333374)"/>
</clipPath>
</defs>
</svg>
