<svg width="25" height="24" viewBox="0 0 25 24" fill="none" xmlns="http://www.w3.org/2000/svg">
<g id="Login" clip-path="url(#clip0_1_316)">
<path id="Vector" d="M10.6667 11V8L15.6667 12L10.6667 16V13H1.66669V11H10.6667ZM3.12469 15H5.24869C5.94673 16.7191 7.22039 18.1422 8.8518 19.0259C10.4832 19.9097 12.371 20.1991 14.1922 19.8447C16.0135 19.4904 17.655 18.5142 18.836 17.0832C20.017 15.6523 20.6642 13.8554 20.6667 12C20.6677 10.1427 20.0225 8.34283 18.8416 6.90922C17.6607 5.47561 16.0178 4.49756 14.1947 4.14281C12.3715 3.78807 10.4817 4.07874 8.84946 4.96498C7.2172 5.85121 5.94415 7.27778 5.24869 9H3.12469C4.39869 4.943 8.18869 2 12.6667 2C18.1897 2 22.6667 6.477 22.6667 12C22.6667 17.523 18.1897 22 12.6667 22C8.18869 22 4.39869 19.057 3.12469 15Z" fill="#0C1230"/>
</g>
<defs>
<clipPath id="clip0_1_316">
<rect width="24" height="24" fill="white" transform="translate(0.666687)"/>
</clipPath>
</defs>
</svg>
